<?xml version="1.0" encoding="iso-8859-1"?>
<!-- Generator: Adobe Illustrator 19.0.0, SVG Export Plug-In . SVG Version: 6.00 Build 0)  -->
<svg version="1.1" id="Layer_1" xmlns="http://www.w3.org/2000/svg" xmlns:xlink="http://www.w3.org/1999/xlink" x="0px" y="0px"
	 viewBox="0 0 227.697 227.697" style="enable-background:new 0 0 227.697 227.697;" xml:space="preserve">
<g>
	<path style="fill:#3FA9F5;" d="M159.367,41.147c13.43-4.308,26.401-10.038,39.647-14.713c0.046-0.046,0.137,0,0.183-0.046
		c2.063-1.833,5.408-2.154,7.15,1.008c18.884,34.239,28.876,76.865,14.575,114.037c-12.329,32.176-35.476,53.077-68.981,62.977
		c-34.651,10.313-72.465,3.896-101.799-17.096C24.751,169.118,0.183,133.825,0,101.649c0-2.429,1.971-3.392,3.758-3.071
		c3.117-3.85,9.488-5.133,13.934-6.967c7.425-3.025,16.134-8.204,24.201-8.204c1.283,0,2.338,0.688,2.979,1.65
		c3.3,1.742,4.171,6.921,5.546,10.267c9.167,22.826,19.388,43.497,41.664,56.102c26.447,14.988,68.523,13.063,78.927-21.084
		c8.479-27.822-1.329-56.147-14.071-80.806c-0.779-1.558-0.779-3.025-0.321-4.308C156.525,43.531,157.396,41.743,159.367,41.147z"/>
	<path style="fill:#3FA9F5;" d="M118.162,88.999c-10.771-14.988-19.113-37.447-23.101-55.368c-0.367-1.65,0.917-2.888,2.292-2.979
		c0.092-0.138,0.183-0.275,0.321-0.367c5.088-4.263,13.705-11.642,20.534-11.825c5.317-0.183,6.188,3.392,8.296,7.884
		c7.517,15.767,16.134,33.551,18.288,50.968c0.046,0.092,0,0.138,0,0.229c0.871,1.283,1.146,2.933,0.092,4.308
		c-3.071,4.125-9.029,5.729-13.659,7.609c-2.979,1.146-6.738,2.979-9.396,1.146C120.499,90.74,119.033,90.236,118.162,88.999z"/>
	<path style="fill:#3FA9F5;" d="M101.065,100.641c-2.017,4.354-8.159,6.188-12.421,7.7c-4.721,1.604-9.946,2.567-14.85,1.833
		c-0.458-0.092-0.825-0.229-1.1-0.413c-1.283,0.046-2.521-0.458-3.254-1.879c-4.813-9.304-7.929-19.525-11.413-29.38
		c-3.346-9.579-7.929-19.709-7.792-29.976c0-0.275,0.137-0.413,0.229-0.642c0.046-0.596,0.229-1.146,0.733-1.604
		c3.025-2.704,6.417-3.529,10.267-4.446c4.629-1.1,8.434-3.071,12.33-5.683c2.796-1.879,5.271-0.092,6.004,2.383
		c0.183,0.138,0.367,0.275,0.55,0.504c5.913,8.204,9.35,17.509,12.467,27.088c3.254,9.992,8.067,19.938,10.45,30.113
		c0.55,2.154-0.596,3.713-2.154,4.309C101.111,100.549,101.065,100.595,101.065,100.641z"/>
</g>
<g>
</g>
<g>
</g>
<g>
</g>
<g>
</g>
<g>
</g>
<g>
</g>
<g>
</g>
<g>
</g>
<g>
</g>
<g>
</g>
<g>
</g>
<g>
</g>
<g>
</g>
<g>
</g>
<g>
</g>
</svg>
